# xmcd
#
# Track frame offsets:
#	150
#	17836
#	34762
#	51241
#	65865
#	82338
#	100263
#	115902
#	128876
#	144679
#	161342
#	176908
#
# Disc length: 2655 seconds
#
# Revision: 8
# Processed by: cddbd v1.4PL0 Copyright (c) Steve Scherf et al.
# Submitted via: dBpowerAMP V4.0
#
DISCID=b10a5d0c
DTITLE=Dixie Chicks - Wide Open Spaces
DYEAR=1998
DGENRE=Rock
TTITLE0=I Can Love You Better
TTITLE1=Wide Open Spaces
TTITLE2=Loving Arms
TTITLE3=There's Your Trouble
TTITLE4=You Were Mine
TTITLE5=Never Say Die
TTITLE6=Tonight The Heartache's On Me
TTITLE7=Let 'Er Rip
TTITLE8=Once You've Loved Sombody
TTITLE9=I'll Take Care Of You
TTITLE10=Am I The Only One
TTITLE11=Give It Up Or Let Me Go
EXTD=
EXTT0=
EXTT1=
EXTT2=
EXTT3=
EXTT4=
EXTT5=
EXTT6=
EXTT7=
EXTT8=
EXTT9=
EXTT10=
EXTT11=
PLAYORDER=
